# xmcd
#
# Track frame offsets:
#	150
#	11958
#	23320
#	40528
#	52023
#	63186
#	76744
#	88779
#	101288
#	114666
#	124933
#	135920
#	146721
#	156534
#	168793
#
# Disc length: 2393 seconds
#
# Revision: 0
# Processed by: cddbd v1.5.2PL0 Copyright (c) Steve Scherf et al.
# Submitted via: EasyCDDAExtractor 12.0.5.1
#
DISCID=b709570f
DTITLE=Various Artist - Golden Age of Country - Ring of Fire Disc 1
DYEAR=2009
DGENRE=Country
TTITLE0=Johnny Cash - Ring of Fire
TTITLE1=Marty Robbins - A White Sport Coat (And a Pink Carnation)
TTITLE2=Charley Pride - (I'm So) Afraid of Losing You Again
TTITLE3=Don Gibson - Sea of Heartbreak
TTITLE4=Tammy Wynette - The Ways to Love a Man
TTITLE5=Stonewall Jackson - Don't Be Angry
TTITLE6=Jim Reeves with the Circle O Ranch Boys - Mexican Joe
TTITLE7=Lefty Frizzell - I Love You a Thousand Ways
TTITLE8=Hank Snow, the Singing Ranger and His Rainbow Ranch Boys - I Don't Hur
TTITLE8=t Anymore
TTITLE9=Eddy Arnold, the Tennessee Plowboy and His Guitar - There's Been a Cha
TTITLE9=nge in Me
TTITLE10=Connie Smith - Then and Only Then
TTITLE11=Porter Wagoner with Dolly Parton - Just Someone I Used to Know
TTITLE12=Jimmy Dean - The First Thing Ev'ry Morning (And the Last Thing Ev'ry 
TTITLE12=Night)
TTITLE13=Elvis Presley - I Want You, I Need You, I Love You
TTITLE14=Johnnie and Jack and Their Tennessee Mountain Boys - Poison Ivy
EXTD=
EXTT0=
EXTT1=
EXTT2=
EXTT3=
EXTT4=
EXTT5=
EXTT6=
EXTT7=
EXTT8=
EXTT9=
EXTT10=
EXTT11=
EXTT12=
EXTT13=
EXTT14=
PLAYORDER=
